# Blender v2.79 (sub 0) OBJ File: ''
# www.blender.org
mtllib hellgate_lowpoly_draft.mtl
o Cylinder
v 0.000000 0.114999 0.000000
v 0.000000 0.000000 -1.000000
v 0.000000 0.114999 -0.901590
v 0.500000 0.000000 -0.866025
v 0.450795 0.114999 -0.780800
v 0.866025 0.000000 -0.500000
v 0.780800 0.114999 -0.450795
v 1.000000 0.000000 0.000000
v 0.901590 0.114999 0.000000
v 0.866025 0.000000 0.500000
v 0.780800 0.114999 0.450795
v 0.500000 0.000000 0.866025
v 0.450795 0.114999 0.780800
v 0.000000 0.000000 1.000000
v 0.000000 0.114999 0.901590
v -0.500000 0.000000 0.866026
v -0.450795 0.114999 0.780800
v -0.866025 0.000000 0.500000
v -0.780799 0.114999 0.450795
v -1.000000 0.000000 0.000000
v -0.901590 0.114999 0.000000
v -0.866026 0.000000 -0.499999
v -0.780800 0.114999 -0.450794
v -0.500001 0.000000 -0.866025
v -0.450795 0.114999 -0.780799
v -0.172483 0.118966 0.819202
v -0.034861 1.038497 0.982987
v -0.172483 0.118966 0.474236
v -0.034861 0.950218 0.893408
v 0.172483 0.118966 0.819202
v 0.090907 1.038497 0.982987
v 0.172483 0.118966 0.474236
v 0.090907 0.950218 0.893408
v -0.063931 0.118966 0.416219
v 0.004715 0.935371 0.878343
v 0.063931 0.118966 0.877219
v 0.051331 1.053344 0.998052
v 0.016959 1.148075 0.617684
v 0.016959 1.132543 0.601924
v 0.039087 1.148075 0.617684
v 0.039087 1.132543 0.601924
v 0.023922 1.129931 0.599273
v 0.032124 1.150687 0.620335
v 0.819202 0.118966 0.172483
v 0.982987 1.038497 0.034861
v 0.474236 0.118966 0.172483
v 0.893408 0.950218 0.034861
v 0.819202 0.118966 -0.172484
v 0.982987 1.038497 -0.090907
v 0.474236 0.118966 -0.172483
v 0.893408 0.950218 -0.090907
v 0.416219 0.118966 0.063931
v 0.878343 0.935371 -0.004715
v 0.877219 0.118966 -0.063931
v 0.998052 1.053344 -0.051331
v 0.617684 1.148075 -0.016959
v 0.601924 1.132543 -0.016959
v 0.617684 1.148075 -0.039087
v 0.601924 1.132543 -0.039087
v 0.599273 1.129931 -0.023922
v 0.620335 1.150687 -0.032124
v 0.172483 0.118966 -0.819202
v 0.034861 1.038497 -0.982987
v 0.172483 0.118966 -0.474236
v 0.034861 0.950218 -0.893408
v -0.172484 0.118966 -0.819202
v -0.090907 1.038497 -0.982987
v -0.172483 0.118966 -0.474236
v -0.090907 0.950218 -0.893408
v 0.063931 0.118966 -0.416219
v -0.004715 0.935371 -0.878343
v -0.063931 0.118966 -0.877219
v -0.051331 1.053344 -0.998052
v -0.016959 1.148075 -0.617684
v -0.016959 1.132543 -0.601924
v -0.039087 1.148075 -0.617684
v -0.039087 1.132543 -0.601924
v -0.023922 1.129931 -0.599273
v -0.032124 1.150687 -0.620335
v -0.819202 0.118966 -0.172483
v -0.982987 1.038497 -0.034861
v -0.474236 0.118966 -0.172483
v -0.893408 0.950218 -0.034861
v -0.819202 0.118966 0.172484
v -0.982987 1.038497 0.090907
v -0.474236 0.118966 0.172483
v -0.893408 0.950218 0.090907
v -0.416219 0.118966 -0.063931
v -0.878343 0.935371 0.004716
v -0.877219 0.118966 0.063931
v -0.998052 1.053344 0.051331
v -0.617684 1.148075 0.016959
v -0.601924 1.132543 0.016959
v -0.617684 1.148075 0.039087
v -0.601924 1.132543 0.039087
v -0.599273 1.129931 0.023922
v -0.620335 1.150687 0.032124
vn 0.0000 1.0000 0.0000
vn 0.1995 0.6371 -0.7445
vn 0.5450 0.6371 -0.5450
vn 0.7445 0.6371 -0.1995
vn 0.7445 0.6371 0.1995
vn 0.5450 0.6371 0.5450
vn 0.1995 0.6371 0.7445
vn -0.1995 0.6371 0.7445
vn -0.5450 0.6371 0.5450
vn -0.7445 0.6371 0.1995
vn -0.7445 0.6371 -0.1995
vn -0.5450 0.6371 -0.5450
vn -0.1995 0.6371 -0.7445
vn -0.9855 0.1662 -0.0338
vn 0.1751 0.4654 -0.8676
vn 0.9948 0.0994 -0.0202
vn -0.2131 -0.1342 0.9678
vn 0.0000 -1.0000 -0.0000
vn 0.9882 0.1091 -0.1075
vn 0.2340 -0.8050 -0.5451
vn 0.4301 -0.1156 0.8953
vn -0.3504 0.4755 -0.8069
vn -0.0000 0.7123 -0.7019
vn 0.4119 0.8872 0.2077
vn -0.4670 -0.7100 -0.5271
vn -0.9882 0.1091 -0.1075
vn -0.2071 0.9448 0.2540
vn -0.0338 0.1662 0.9855
vn -0.8676 0.4654 -0.1751
vn -0.0202 0.0994 -0.9948
vn 0.9678 -0.1342 0.2131
vn -0.1075 0.1091 -0.9882
vn -0.5451 -0.8050 -0.2340
vn 0.8953 -0.1156 -0.4301
vn -0.8069 0.4755 0.3504
vn -0.7019 0.7123 0.0000
vn 0.2077 0.8872 -0.4119
vn -0.5271 -0.7100 0.4670
vn -0.1075 0.1091 0.9882
vn 0.2540 0.9448 0.2071
vn 0.9855 0.1662 0.0338
vn -0.1751 0.4654 0.8676
vn -0.9948 0.0994 0.0202
vn 0.2131 -0.1342 -0.9678
vn -0.9882 0.1091 0.1075
vn -0.2340 -0.8050 0.5451
vn -0.4301 -0.1156 -0.8953
vn 0.3504 0.4755 0.8069
vn 0.0000 0.7123 0.7019
vn -0.4119 0.8872 -0.2077
vn 0.4670 -0.7100 0.5271
vn 0.9882 0.1091 0.1075
vn 0.2071 0.9448 -0.2540
vn 0.0338 0.1662 -0.9855
vn 0.8676 0.4654 0.1751
vn 0.0202 0.0994 0.9948
vn -0.9678 -0.1342 -0.2131
vn 0.1075 0.1091 0.9882
vn 0.5451 -0.8050 0.2340
vn -0.8953 -0.1156 0.4301
vn 0.8069 0.4755 -0.3504
vn 0.7019 0.7123 0.0000
vn -0.2077 0.8872 0.4119
vn 0.5271 -0.7100 -0.4670
vn 0.1075 0.1091 -0.9882
vn -0.2540 0.9448 -0.2071
usemtl None
s off
f 1//1 5//1 3//1
f 2//2 3//2 5//2 4//2
f 1//1 7//1 5//1
f 4//3 5//3 7//3 6//3
f 1//1 9//1 7//1
f 6//4 7//4 9//4 8//4
f 1//1 11//1 9//1
f 8//5 9//5 11//5 10//5
f 1//1 13//1 11//1
f 10//6 11//6 13//6 12//6
f 1//1 15//1 13//1
f 12//7 13//7 15//7 14//7
f 1//1 17//1 15//1
f 14//8 15//8 17//8 16//8
f 1//1 19//1 17//1
f 16//9 17//9 19//9 18//9
f 1//1 21//1 19//1
f 18//10 19//10 21//10 20//10
f 1//1 23//1 21//1
f 20//11 21//11 23//11 22//11
f 1//1 25//1 23//1
f 22//12 23//12 25//12 24//12
f 1//1 3//1 25//1
f 24//13 25//13 3//13 2//13
f 26//14 27//14 29//14 28//14
f 34//15 35//15 33//15 32//15
f 32//16 33//16 31//16 30//16
f 36//17 37//17 27//17 26//17
f 34//18 32//18 30//18 36//18
f 31//19 33//19 41//19 40//19
f 33//20 35//20 42//20 41//20
f 28//18 34//18 36//18 26//18
f 30//21 31//21 37//21 36//21
f 28//22 29//22 35//22 34//22
f 42//23 39//23 38//23 43//23
f 41//23 42//23 43//23 40//23
f 37//24 31//24 40//24 43//24
f 35//25 29//25 39//25 42//25
f 29//26 27//26 38//26 39//26
f 27//27 37//27 43//27 38//27
f 44//28 45//28 47//28 46//28
f 52//29 53//29 51//29 50//29
f 50//30 51//30 49//30 48//30
f 54//31 55//31 45//31 44//31
f 52//18 50//18 48//18 54//18
f 49//32 51//32 59//32 58//32
f 51//33 53//33 60//33 59//33
f 46//18 52//18 54//18 44//18
f 48//34 49//34 55//34 54//34
f 46//35 47//35 53//35 52//35
f 60//36 57//36 56//36 61//36
f 59//36 60//36 61//36 58//36
f 55//37 49//37 58//37 61//37
f 53//38 47//38 57//38 60//38
f 47//39 45//39 56//39 57//39
f 45//40 55//40 61//40 56//40
f 62//41 63//41 65//41 64//41
f 70//42 71//42 69//42 68//42
f 68//43 69//43 67//43 66//43
f 72//44 73//44 63//44 62//44
f 70//18 68//18 66//18 72//18
f 67//45 69//45 77//45 76//45
f 69//46 71//46 78//46 77//46
f 64//18 70//18 72//18 62//18
f 66//47 67//47 73//47 72//47
f 64//48 65//48 71//48 70//48
f 78//49 75//49 74//49 79//49
f 77//49 78//49 79//49 76//49
f 73//50 67//50 76//50 79//50
f 71//51 65//51 75//51 78//51
f 65//52 63//52 74//52 75//52
f 63//53 73//53 79//53 74//53
f 80//54 81//54 83//54 82//54
f 88//55 89//55 87//55 86//55
f 86//56 87//56 85//56 84//56
f 90//57 91//57 81//57 80//57
f 88//18 86//18 84//18 90//18
f 85//58 87//58 95//58 94//58
f 87//59 89//59 96//59 95//59
f 82//18 88//18 90//18 80//18
f 84//60 85//60 91//60 90//60
f 82//61 83//61 89//61 88//61
f 96//62 93//62 92//62 97//62
f 95//62 96//62 97//62 94//62
f 91//63 85//63 94//63 97//63
f 89//64 83//64 93//64 96//64
f 83//65 81//65 92//65 93//65
f 81//66 91//66 97//66 92//66
